<svg width="64" height="64" viewBox="0 0 64 64" fill="none" xmlns="http://www.w3.org/2000/svg">
<path d="M64 32C64 38.329 62.1232 44.5159 58.607 49.7782C55.0908 55.0406 50.0931 59.1421 44.2459 61.5641C38.3986 63.9862 31.9645 64.6199 25.7571 63.3851C19.5497 62.1504 13.8479 59.1027 9.37258 54.6274C4.8973 50.1521 1.84959 44.4503 0.614869 38.2429C-0.619856 32.0355 0.0138528 25.6014 2.43586 19.7541C4.85787 13.9069 8.95939 8.90917 14.2218 5.39296C19.4841 1.87676 25.671 -3.09337e-06 32 0L32 6.402C26.9372 6.402 21.9881 7.90329 17.7785 10.716C13.569 13.5288 10.288 17.5266 8.35054 22.2041C6.41308 26.8815 5.90615 32.0284 6.89386 36.9939C7.88156 41.9594 10.3195 46.5206 13.8995 50.1005C17.4794 53.6805 22.0405 56.1184 27.0061 57.1061C31.9716 58.0938 37.1185 57.5869 41.7959 55.6495C46.4734 53.712 50.4712 50.4311 53.284 46.2215C56.0967 42.0119 57.598 37.0628 57.598 32H64Z" fill="white"/>
</svg>
